<?xml version="1.0" encoding="UTF-8" standalone="no"?>
<svg
   clip-rule="evenodd"
   fill-rule="evenodd"
   stroke-linejoin="round"
   stroke-miterlimit="1.414"
   viewBox="0 0 25 25"
   version="1.1"
   id="svg4"
   sodipodi:docname="typescript.svg"
   width="25"
   height="25"
   inkscape:version="1.2 (dc2aedaf03, 2022-05-15)"
   xmlns:inkscape="http://www.inkscape.org/namespaces/inkscape"
   xmlns:sodipodi="http://sodipodi.sourceforge.net/DTD/sodipodi-0.dtd"
   xmlns="http://www.w3.org/2000/svg"
   xmlns:svg="http://www.w3.org/2000/svg">
  <defs
     id="defs8" />
  <sodipodi:namedview
     id="namedview6"
     pagecolor="#ffffff"
     bordercolor="#000000"
     borderopacity="0.25"
     inkscape:showpageshadow="2"
     inkscape:pageopacity="0.0"
     inkscape:pagecheckerboard="0"
     inkscape:deskcolor="#d1d1d1"
     showgrid="false"
     inkscape:zoom="0.61094026"
     inkscape:cx="-376.46889"
     inkscape:cy="33.554836"
     inkscape:window-width="1920"
     inkscape:window-height="1051"
     inkscape:window-x="-9"
     inkscape:window-y="-9"
     inkscape:window-maximized="1"
     inkscape:current-layer="svg4" />
  <path
     d="M 0,0 V 25 H 25 V 0 Z m 18.996324,12.14277 v 3.67e-4 c 0.239705,7.36e-4 0.512193,0.01305 0.717095,0.03529 0.834498,0.09026 1.484375,0.450307 2.037255,1.128432 0.275306,0.337806 0.369485,0.4856 0.349449,0.548836 -0.01293,0.04081 -0.201839,0.176102 -0.802451,0.574754 -0.590013,0.391728 -0.780025,0.509069 -0.824143,0.509069 -0.04479,0 -0.138051,-0.09596 -0.272426,-0.280208 -0.258885,-0.354718 -0.523162,-0.516606 -0.931679,-0.570589 -0.439338,-0.05821 -0.833456,0.08027 -1.026471,0.360785 -0.165012,0.239706 -0.189951,0.625367 -0.05882,0.905637 0.151961,0.324571 0.426961,0.504044 1.480821,0.966115 1.215441,0.532966 1.831373,0.897733 2.279963,1.35049 0.483088,0.4875 0.727819,1.050368 0.803003,1.846569 0.0367,0.388113 -0.0082,0.848039 -0.119179,1.221998 -0.272365,0.916728 -1.007353,1.58799 -2.084559,1.903921 -0.297794,0.08732 -0.574878,0.139461 -0.848958,0.159559 -0.418444,0.03082 -1.017341,0.01385 -1.377819,-0.0386 -0.91201,-0.132904 -1.941544,-0.663603 -2.454902,-1.265319 -0.252022,-0.295404 -0.573775,-0.781556 -0.573775,-0.867034 0,-0.0413 0.02047,-0.06477 0.101471,-0.116238 0.240319,-0.152696 1.617279,-0.939828 1.643995,-0.939828 0.01618,0 0.08811,0.08474 0.159804,0.188358 0.162439,0.234559 0.561887,0.637684 0.764951,0.772181 0.16587,0.109865 0.378003,0.198039 0.629841,0.261704 0.14424,0.03597 0.220588,0.0424 0.535294,0.0424 0.321569,-1.23e-4 0.3875,-0.0055 0.531372,-0.04418 0.380515,-0.10239 0.677513,-0.314339 0.803371,-0.573162 0.05515,-0.111826 0.05625,-0.125797 0.05625,-0.397059 v -0.28125 l -0.06765,-0.134191 C 20.283641,19.086454 19.9307,18.863354 18.814768,18.380021 18.302207,18.157962 17.67445,17.84491 17.429351,17.68915 c -0.559375,-0.355453 -0.947058,-0.761826 -1.20147,-1.259252 -0.253064,-0.494669 -0.290748,-0.678799 -0.29136,-1.42261 -6.13e-4,-0.582292 -0.0016,-0.575123 0.118933,-0.946753 0.109375,-0.337255 0.333272,-0.71397 0.580454,-0.976715 0.49326,-0.524326 1.214032,-0.861336 1.985662,-0.928371 0.09865,-0.0094 0.230882,-0.01299 0.374693,-0.01256 z m -6.639706,0.115012 h 2.45e-4 c 1.48609,7.35e-4 2.33799,0.0059 2.351654,0.01446 0.02573,0.01593 0.02898,0.145282 0.02898,0.97071 v 0.952268 l -1.482904,0.0054 -1.482905,0.0054 v 4.210355 c 0,2.315748 -0.0047,4.224142 -0.01115,4.240993 -0.01048,0.02837 -0.124571,0.03051 -1.089461,0.03051 H 9.593443 l -0.01115,-0.0435 c -0.0072,-0.0239 -0.01244,-1.932414 -0.01256,-4.241054 l -3.67e-4,-4.197549 -1.482843,-0.0053 -1.482966,-0.0054 v -0.940993 c 0,-0.746323 0.0051,-0.946201 0.02506,-0.966054 0.0204,-0.02102 0.777206,-0.02641 4.038113,-0.02966 0.628676,-6.13e-4 1.194547,-9.2e-4 1.689951,-6.13e-4 z"
     fill="#0288d1"
     id="path2"
     style="stroke-width:0.0612745" />
</svg>
